HIERARCHY
ROOT Hips
{
	OFFSET 0.000000 0.000000 0.000000
	CHANNELS 6 Xposition Yposition Zposition Zrotation Yrotation Xrotation 
	JOINT LowerBack
	{
		OFFSET 0.000000 0.000000 0.000000
		CHANNELS 3 Zrotation Yrotation Xrotation
		JOINT Spine
		{
			OFFSET 0.028270 2.035590 -0.193380
			CHANNELS 3 Zrotation Yrotation Xrotation
			JOINT Spine1
			{
				OFFSET 0.056720 2.048850 -0.042750
				CHANNELS 3 Zrotation Yrotation Xrotation
				JOINT Neck
				{
					OFFSET 0.000000 0.000000 0.000000
					CHANNELS 3 Zrotation Yrotation Xrotation
					JOINT Neck1
					{
						OFFSET -0.054170 1.746240 0.172020
						CHANNELS 3 Zrotation Yrotation Xrotation
						JOINT Head
						{
							OFFSET 0.104070 1.761360 -0.123970
							CHANNELS 3 Zrotation Yrotation Xrotation
							End Site
							{
								OFFSET 0.000000 0.000000 0.000000
							}
						}
					}
				}
				JOINT LeftShoulder
				{
					OFFSET 0.000000 0.000000 0.000000
					CHANNELS 3 Zrotation Yrotation Xrotation
					JOINT LeftArm
					{
						OFFSET 3.362410 1.200890 -0.311210
						CHANNELS 3 Zrotation Yrotation Xrotation
						JOINT LeftForeArm
						{
							OFFSET 4.983000 -0.000000 -0.000000
							CHANNELS 3 Zrotation Yrotation Xrotation
							JOINT LeftHand
							{
								OFFSET 3.483560 -0.000000 -0.000000
								CHANNELS 3 Zrotation Yrotation Xrotation
								JOINT LeftFingerBase
								{
									OFFSET 0.000000 0.000000 0.000000
									CHANNELS 3 Zrotation Yrotation Xrotation
									JOINT LeftHandIndex1
									{
										OFFSET 0.715260 -0.000000 -0.000000
										CHANNELS 3 Zrotation Yrotation Xrotation
										End Site
										{
											OFFSET 0.000000 0.000000 0.000000
										}
									}
								}
								JOINT LThumb
								{
									OFFSET 0.000000 0.000000 0.000000
									CHANNELS 3 Zrotation Yrotation Xrotation
									End Site
									{
										OFFSET 0.000000 0.000000 0.000000
									}
								}
							}
						}
					}
				}
				JOINT RightShoulder
				{
					OFFSET 0.000000 0.000000 0.000000
					CHANNELS 3 Zrotation Yrotation Xrotation
					JOINT RightArm
					{
						OFFSET -3.136600 1.374050 -0.404650
						CHANNELS 3 Zrotation Yrotation Xrotation
						JOINT RightForeArm
						{
							OFFSET -5.241900 -0.000000 -0.000000
							CHANNELS 3 Zrotation Yrotation Xrotation
							JOINT RightHand
							{
								OFFSET -3.444170 -0.000000 -0.000000
								CHANNELS 3 Zrotation Yrotation Xrotation
								JOINT RightFingerBase
								{
									OFFSET 0.000000 0.000000 0.000000
									CHANNELS 3 Zrotation Yrotation Xrotation
									JOINT RightHandIndex1
									{
										OFFSET -0.622530 -0.000000 -0.000000
										CHANNELS 3 Zrotation Yrotation Xrotation
										End Site
										{
											OFFSET 0.000000 0.000000 0.000000
										}
									}
								}
								JOINT RThumb
								{
									OFFSET 0.000000 0.000000 0.000000
									CHANNELS 3 Zrotation Yrotation Xrotation
									End Site
									{
										OFFSET 0.000000 0.000000 0.000000
									}
								}
							}
						}
					}
				}
			}
		}
	}
}
}
MOTION
Frames: 18
Frame Time: 0.008333
2.667383 16.949425 0.163769 3.455557 80.151637 15.329985 0.103696 -0.053184 -5.830001 -0.833972 -0.277241 -4.596363 -6.158317 -0.420125 -1.997622 7.259528 -1.760894 -5.625866 -3.977681 -0.332127 0.555887 0.000000 0.000000 0.000000 -3.946484 3.481784 4.001393 -63.277613 11.871167 -13.980322 -3.415290 -6.009491 -0.033865 19.210363 10.066011 1.689108 0.003005 0.105046 0.000000 0.000000 0.000000 0.000000 0.000000 0.000000 0.000000 13.701685 4.924707 -0.327213 79.203334 30.212932 34.243817 1.217453 46.304790 -0.016343 -5.515471 10.325929 -0.522646 0.082862 -0.358246 -0.000000 0.000000 0.000000 0.000000 0.000000 0.000000 0.000000 
2.886064 17.018109 0.231319 8.006408 79.610728 19.836573 -1.348884 0.142176 -5.943436 -1.110962 0.049916 -4.628656 -6.062447 -0.093578 -2.041497 7.024499 -1.894188 -5.628716 -3.819781 -0.321557 0.554998 0.000000 0.000000 0.000000 -3.979672 4.163861 4.047193 -62.032594 13.997969 -12.821986 -3.791801 -5.605766 -0.034963 16.861809 11.336484 1.672690 -0.028737 0.101688 0.000000 0.000000 0.000000 0.000000 0.000000 0.000000 0.000000 12.856078 5.173971 -0.475059 79.200510 32.801807 37.066746 1.126773 49.701577 -0.018266 -5.521888 10.220202 -0.519679 0.086574 -0.384804 -0.000000 0.000000 0.000000 0.000000 0.000000 0.000000 0.000000 
3.105768 17.079421 0.296373 11.299568 78.990417 23.032539 -2.657160 0.354511 -6.019466 -1.359356 0.382853 -4.649172 -5.953857 0.241885 -2.056158 6.767180 -1.996615 -5.640069 -3.652966 -0.309880 0.550366 0.000000 0.000000 0.000000 -3.984575 4.962721 4.066720 -60.682711 15.703312 -11.410196 -4.181680 -4.779220 -0.035577 14.066910 11.953005 1.473957 -0.061580 0.094052 0.000000 0.000000 0.000000 0.000000 0.000000 0.000000 0.000000 11.941427 5.417209 -0.600534 78.987237 35.512454 39.444039 1.060149 52.988669 -0.019273 -5.343948 9.999082 -0.493745 0.087848 -0.407895 -0.000000 0.000000 0.000000 0.000000 0.000000 0.000000 0.000000 
3.326901 17.132131 0.357229 13.483698 78.291521 25.074528 -3.805613 0.592745 -6.067242 -1.574812 0.728442 -4.659613 -5.821837 0.592402 -2.037590 6.468616 -2.052184 -5.666057 -3.477323 -0.297056 0.540979 0.000000 0.000000 0.000000 -3.986174 5.911437 4.058007 -59.261536 17.030829 -9.719240 -4.569639 -3.688988 -0.035226 10.985813 11.938016 1.153012 -0.093222 0.082556 0.000000 0.000000 0.000000 0.000000 0.000000 0.000000 0.000000 10.932400 5.675506 -0.705107 78.517282 38.335211 41.385339 1.010026 56.166345 -0.019336 -5.014466 9.709187 -0.451341 0.086465 -0.427311 -0.000000 0.000000 0.000000 0.000000 0.000000 0.000000 0.000000 
3.549690 17.175448 0.412836 14.784461 77.532322 26.185547 -4.785776 0.860969 -6.088021 -1.753697 1.089515 -4.664995 -5.659878 0.959367 -2.004936 6.103119 -2.023558 -5.685890 -3.293903 -0.283465 0.533348 0.000000 0.000000 0.000000 -4.029847 6.927214 4.018112 -57.756803 17.962322 -7.225009 -4.959988 -2.112390 -0.033527 7.685789 11.279460 0.766857 -0.122961 0.067220 -0.000000 0.000000 0.000000 0.000000 0.000000 0.000000 0.000000 9.796627 5.974738 -0.786285 77.745595 41.218368 42.834277 0.965379 59.230937 -0.018596 -4.556536 9.385778 -0.397666 0.081604 -0.443403 -0.000000 0.000000 0.000000 0.000000 0.000000 0.000000 0.000000 
3.774641 17.208834 0.462158 15.344894 76.731769 26.521427 -5.580500 1.157896 -6.088610 -1.889707 1.462506 -4.666152 -5.460930 1.338319 -1.958177 5.656187 -1.902333 -5.707968 -3.102352 -0.269004 0.525872 0.000000 0.000000 0.000000 -4.149535 8.021389 3.945433 -56.242361 18.572635 -4.128425 -5.322176 -0.223597 -0.030266 4.435656 9.970525 0.397504 -0.148915 0.048692 -0.000000 0.000000 0.000000 0.000000 0.000000 0.000000 0.000000 8.515715 6.316872 -0.848029 76.626010 44.142314 43.767782 0.918496 62.174557 -0.017323 -4.021631 9.061394 -0.339817 0.073359 -0.456653 -0.000000 0.000000 0.000000 0.000000 0.000000 0.000000 0.000000 
4.002285 17.232104 0.504769 15.288947 75.894150 26.232866 -6.179968 1.457732 -6.069673 -1.979620 1.818613 -4.668701 -5.235242 1.698668 -1.917316 5.148646 -1.702997 -5.759964 -2.897232 -0.253031 0.512513 0.000000 0.000000 0.000000 -4.407479 9.162966 3.875934 -54.786325 20.142481 -0.511695 -5.630290 -0.831358 -0.028972 1.535115 9.254431 0.137065 -0.170559 0.025921 -0.000000 0.000000 0.000000 0.000000 0.000000 0.000000 0.000000 7.118483 6.737273 -0.876197 75.130275 47.109914 44.202255 0.872902 64.985841 -0.015721 -3.477551 8.758157 -0.284576 0.063607 -0.467768 -0.000000 0.000000 0.000000 0.000000 0.000000 0.000000 0.000000 
4.232710 17.245588 0.541002 14.795014 75.037492 25.503516 -6.597555 1.759322 -6.032583 -2.028433 2.157275 -4.672694 -4.995227 2.039090 -1.885695 4.589625 -1.427256 -5.838808 -2.678145 -0.235553 0.494204 0.000000 0.000000 0.000000 -4.808099 10.343503 3.797718 -53.187720 22.560221 3.293518 -5.854645 -3.572762 -0.030578 -0.813470 9.111968 -0.050562 -0.187237 -0.000869 -0.000000 0.000000 0.000000 0.000000 0.000000 0.000000 0.000000 5.623813 7.213572 -0.875125 73.218043 50.088388 44.084583 0.820001 67.644012 -0.014275 -2.966413 8.487378 -0.235541 0.051988 -0.477742 -0.000000 0.000000 0.000000 0.000000 0.000000 0.000000 0.000000 
4.465815 17.249892 0.571602 14.031298 74.187291 24.503184 -6.863128 2.075008 -5.986679 -2.042441 2.495170 -4.671515 -4.736526 2.376856 -1.840853 3.973583 -1.088197 -5.938881 -2.451926 -0.217085 0.471390 0.000000 0.000000 0.000000 -5.260123 11.608906 3.675201 -51.441631 24.716643 6.733476 -5.984439 -5.996427 -0.032082 -2.504797 8.700554 -0.176783 -0.197871 -0.027638 -0.000000 0.000000 0.000000 0.000000 0.000000 0.000000 0.000000 4.041147 7.664737 -0.869045 70.842351 53.040460 43.353957 0.750547 70.115584 -0.013584 -2.526634 8.254021 -0.194928 0.037342 -0.487711 -0.000000 0.000000 0.000000 0.000000 0.000000 0.000000 0.000000 
4.701472 17.245969 0.597455 13.131191 73.358441 23.381332 -7.009681 2.396330 -5.939370 -2.028653 2.827662 -4.666512 -4.464193 2.707027 -1.789471 3.312938 -0.711159 -6.061215 -2.221781 -0.197904 0.443626 0.000000 0.000000 0.000000 -5.708616 12.933060 3.511606 -49.643672 26.568368 9.574860 -6.036621 -7.945307 -0.033018 -3.553948 8.165926 -0.241497 -0.203041 -0.052021 -0.000000 0.000000 0.000000 0.000000 0.000000 0.000000 0.000000 2.399340 8.050753 -0.871988 67.999068 55.915765 41.988469 0.668895 72.362854 -0.013929 -2.183334 8.056774 -0.163834 0.019734 -0.498786 -0.000000 0.000000 0.000000 0.000000 0.000000 0.000000 0.000000 
4.939325 17.234851 0.619330 12.181252 72.568166 22.246375 -7.063839 2.714879 -5.900416 -1.993020 3.149735 -4.661189 -4.184200 3.024272 -1.744265 2.615940 -0.321527 -6.203070 -1.989766 -0.178255 0.411583 0.000000 0.000000 0.000000 -6.108115 14.294612 3.318435 -47.877909 28.102393 11.756668 -6.032524 -9.369157 -0.033191 -4.052103 7.639275 -0.260104 -0.203957 -0.072503 -0.000000 0.000000 0.000000 0.000000 0.000000 0.000000 0.000000 0.712723 8.341155 -0.910160 64.735118 58.634534 39.989093 0.582847 74.350598 -0.015392 -1.939064 7.891745 -0.141559 -0.000792 -0.511756 -0.000000 0.000000 0.000000 0.000000 0.000000 0.000000 0.000000 
5.178937 17.217558 0.637828 11.239552 71.836107 21.177152 -7.048894 3.024725 -5.880147 -1.941464 3.458466 -4.661675 -3.904467 3.325373 -1.725378 1.893535 0.049305 -6.352246 -1.758941 -0.158611 0.378672 0.000000 0.000000 0.000000 -6.435603 15.638243 3.109898 -46.196167 29.373358 13.256740 -5.993361 -10.307913 -0.032664 -4.114562 7.208371 -0.250204 -0.202158 -0.088450 -0.000000 0.000000 0.000000 0.000000 0.000000 0.000000 0.000000 -0.996348 8.514671 -1.008441 61.123297 61.107337 37.401445 0.502149 76.055195 -0.017940 -1.792534 7.754008 -0.127406 -0.023636 -0.526841 -0.000000 0.000000 0.000000 0.000000 0.000000 0.000000 0.000000 
5.419853 17.194943 0.653287 10.300768 71.189663 20.180909 -6.972011 3.323551 -5.883409 -1.876029 3.753262 -4.671546 -3.628483 3.609931 -1.745655 1.151017 0.375347 -6.496441 -1.530047 -0.139244 0.348293 0.000000 0.000000 0.000000 -6.668552 16.933973 2.905295 -44.634388 30.391145 14.124971 -5.934212 -10.808250 -0.031568 -3.851019 6.903556 -0.224197 -0.199061 -0.099769 -0.000000 0.000000 0.000000 0.000000 0.000000 0.000000 0.000000 -2.727115 8.568121 -1.197380 57.284332 63.231972 34.309729 0.435355 77.476996 -0.021329 -1.721661 7.639466 -0.119173 -0.048094 -0.543434 -0.000000 0.000000 0.000000 0.000000 0.000000 0.000000 0.000000 
5.661524 17.167833 0.666071 9.361413 70.645954 19.257161 -6.845922 3.613303 -5.915656 -1.800513 4.037962 -4.693134 -3.359183 3.882342 -1.810097 0.400748 0.630535 -6.621216 -1.305267 -0.120554 0.324267 0.000000 0.000000 0.000000 -6.796186 18.130123 2.721005 -43.210641 31.194086 14.396851 -5.867896 -10.947725 -0.030119 -3.359170 6.721328 -0.189385 -0.195975 -0.106828 -0.000000 0.000000 0.000000 0.000000 0.000000 0.000000 0.000000 -4.460075 8.512156 -1.487549 53.333720 64.935700 30.841899 0.388259 78.636453 -0.025275 -1.710176 7.545687 -0.115760 -0.072880 -0.560366 0.000000 0.000000 0.000000 0.000000 0.000000 0.000000 0.000000 
5.903314 17.136794 0.676747 8.437352 70.217897 18.400223 -6.689208 3.896328 -5.965788 -1.719110 4.316969 -4.723149 -3.094571 4.148212 -1.912652 -0.350081 0.801463 -6.716099 -1.083737 -0.102608 0.309054 0.000000 0.000000 0.000000 -6.813095 19.188986 2.571312 -41.934399 31.795574 14.161810 -5.802537 -10.803246 -0.028513 -2.724040 6.629058 -0.149570 -0.193825 -0.110240 -0.000000 0.000000 0.000000 0.000000 0.000000 0.000000 0.000000 -6.194770 8.371359 -1.875630 49.416035 66.166095 27.150377 0.362317 79.571716 -0.029291 -1.718585 7.471865 -0.113966 -0.097063 -0.576142 0.000000 0.000000 0.000000 0.000000 0.000000 0.000000 0.000000 
6.144767 17.102564 0.685978 7.537758 69.919302 17.599814 -6.520129 4.170235 -6.030418 -1.637645 4.589178 -4.756287 -2.839172 4.407668 -2.033776 -1.076572 0.869576 -6.780911 -0.869894 -0.085717 0.302011 0.000000 0.000000 0.000000 -6.720649 20.073617 2.460190 -40.814481 32.222294 13.457149 -5.744508 -10.449979 -0.026950 -2.018234 6.592520 -0.107451 -0.193217 -0.110620 -0.000000 0.000000 0.000000 0.000000 0.000000 0.000000 0.000000 -7.877853 8.159700 -2.327041 45.600920 66.952196 23.402255 0.354607 80.314364 -0.033170 -1.745749 7.417541 -0.113985 -0.119192 -0.589622 0.000000 0.000000 0.000000 0.000000 0.000000 0.000000 0.000000 
6.385494 17.065755 0.694552 6.698258 69.762912 16.856872 -6.359874 4.428378 -6.090518 -1.561088 4.848973 -4.784960 -2.594298 4.656339 -2.155287 -1.764669 0.835463 -6.818643 -0.664211 -0.069825 0.301651 0.000000 0.000000 0.000000 -6.534147 20.767627 2.386654 -39.846673 32.491897 12.386561 -5.696513 -9.960127 -0.025568 -1.308903 6.573160 -0.065633 -0.194298 -0.108619 -0.000000 0.000000 0.000000 0.000000 0.000000 0.000000 0.000000 -9.487549 7.895112 -2.803183 41.998855 67.332140 19.757876 0.359341 80.894044 -0.036518 -1.760015 7.381585 -0.113506 -0.138790 -0.600040 0.000000 0.000000 0.000000 0.000000 0.000000 0.000000 0.000000 
6.625359 17.027013 0.703211 5.948818 69.762420 16.174644 -6.226283 4.659429 -6.133340 -1.494092 5.085234 -4.803342 -2.365730 4.883803 -2.260402 -2.393069 0.701719 -6.837687 -0.469838 -0.055009 0.305105 0.000000 0.000000 0.000000 -6.274325 21.267915 2.343179 -39.023620 32.629022 11.032690 -5.659946 -9.392946 -0.024463 -0.653505 6.545156 -0.027016 -0.196928 -0.104753 -0.000000 0.000000 0.000000 0.000000 0.000000 0.000000 0.000000 -10.979058 7.584576 -3.259220 38.680875 67.385195 16.359922 0.369259 81.323850 -0.039149 -1.751570 7.359853 -0.111818 -0.155428 -0.607243 0.000000 0.000000 0.000000 0.000000 0.000000 0.000000 0.000000 
